<svg width="1280" height="1454" viewBox="0 0 1280 1454" fill="none" xmlns="http://www.w3.org/2000/svg">
<g clip-path="url(#clip0_1_25)">
<g filter="url(#filter0_d_1_25)">
<path d="M-91.7212 125.139C-42.0087 125.139 7.70383 125.139 57.4163 125.139C88.2826 125.139 120.032 122.878 150.77 125.971C186.342 129.551 222.053 132.106 257.758 134.505C333.716 139.609 410.174 135.498 486.2 139.189C502.625 139.986 519.271 139.313 535.635 140.958C558.323 143.239 580.601 148.601 603.283 151.053C654.322 156.571 708.298 156.339 759.081 149.492C813.272 142.185 868.109 141.997 922.164 135.338C973.647 128.996 1026.42 130.759 1078.17 130.759C1126.34 130.759 1175.47 133.325 1223.56 130.342C1243 129.137 1262.13 127.012 1281.63 127.012C1291.48 127.012 1302.48 126.298 1311.4 130.759" stroke="#1B1B27" stroke-width="2.56589" stroke-linecap="round"/>
</g>
<g filter="url(#filter1_d_1_25)">
<path d="M-76.7346 220.678C-49.1528 226.485 -22.1721 234.687 5.79577 238.475C31.3265 241.932 56.7747 242.191 82.2899 245.136C151.956 253.174 220.877 251.098 290.333 244.303C313.952 241.992 338.026 243.158 361.728 243.158C412.994 243.158 464.545 244.1 515.757 246.176C555.081 247.77 594.047 254.395 633.256 256.063C659.167 257.166 684.44 255.035 710.166 252.525C759.86 247.677 809.573 250.377 859.095 243.574C907.224 236.963 957.73 241.285 1006.26 241.285C1051.63 241.285 1097.01 241.285 1142.38 241.285C1192.76 241.285 1242.38 248.778 1292.67 248.778" stroke="#1B1B27" stroke-width="2.56589" stroke-linecap="round"/>
</g>
<g filter="url(#filter2_d_1_25)">
<path d="M-65.4945 331.205C-14.0633 333.347 36.6459 346.191 88.2223 346.191C138.863 346.191 189.356 345.64 239.962 343.381C280.853 341.556 325.035 334.096 365.787 339.947C389.18 343.305 407.137 356.442 428.647 364.508C454.015 374.021 481.749 372.535 508.368 372.418C568.964 372.151 630.574 369.677 690.913 363.78C766.748 356.367 843.087 328.91 919.667 331.621C957.194 332.949 993.66 340.429 1031.44 337.449C1069.77 334.427 1108.69 329.652 1146.76 324.127C1178.16 319.569 1209.3 316.115 1241.05 314.761C1249.81 314.387 1275.21 318.685 1281.43 312.471" stroke="#1B1B27" stroke-width="2.56589" stroke-linecap="round"/>
</g>
<g filter="url(#filter3_d_1_25)">
<path d="M-99.2145 379.911C-54.7342 391.886 -12.0923 410.696 32.959 420.708C56.4736 425.933 80.2311 424.871 104.145 424.871C151.95 424.871 199.754 424.871 247.559 424.871C296.129 424.871 350.92 418.882 397.841 433.197C410.694 437.118 422.352 445.384 434.683 450.681C452.735 458.436 472.443 464.053 491.299 469.518C519.66 477.739 546.653 482.769 576.223 482.944C605.48 483.117 634.472 486.73 663.645 482.944C692.426 479.209 721.61 475.631 749.61 467.853C768.461 462.617 786.632 455.472 804.769 448.183C828.3 438.727 849.305 432.265 874.29 428.201C908.47 422.642 942.717 422.098 977.323 423.101C991.288 423.506 1004.45 427.284 1018.22 428.409C1028.55 429.252 1038.99 428.29 1049.34 428.721C1077.06 429.876 1104.56 434.018 1132.39 434.237C1161.25 434.465 1189.63 438.824 1218.36 441.627C1223.83 442.161 1279.55 440.112 1279.55 451.097" stroke="#1B1B27" stroke-width="2.56589" stroke-linecap="round"/>
</g>
<g filter="url(#filter4_d_1_25)">
<path d="M0.0718994 552.257C12.7671 548.523 21.3484 542.89 35.0406 542.89C53.9473 542.89 72.8541 542.89 91.7608 542.89C137.536 542.89 183.68 547.988 229.45 543.827C272.484 539.915 312.139 547.875 354.443 554.338C433.917 566.48 512.42 583.539 591.835 595.552C629.561 601.258 667.307 610.748 705.587 611.891C729.259 612.598 755.583 608.66 778.959 605.126C836.997 596.353 887.954 567.68 945.06 556.004C983.765 548.09 1023.46 539.048 1063.08 537.479C1088.2 536.484 1113.5 537.27 1138.64 537.27C1185.64 537.27 1232.57 539.144 1279.55 539.144" stroke="#1B1B27" stroke-width="2.56589" stroke-linecap="round"/>
</g>
<g filter="url(#filter5_d_1_25)">
<path d="M-9.29492 632.81C11.4476 636.051 30.0178 645.85 51.38 646.34C87.6789 647.171 124.368 642.613 160.761 642.177C200.286 641.703 239.696 636.327 279.405 636.557C357.196 637.006 432.697 661.835 510.449 662.783C534.615 663.078 557.463 661.801 581.531 664.657C609.357 667.958 637.799 671.209 665.831 672.046C712.092 673.427 757.78 681.985 804.145 683.39C895.895 686.17 985.366 678.225 1073.9 652.48C1122.32 638.403 1170.54 619.991 1221.48 618.032C1275.29 615.962 1329.72 625.872 1382.59 634.683" stroke="#1B1B27" stroke-width="2.56589" stroke-linecap="round"/>
</g>
<g filter="url(#filter6_d_1_25)">
<path d="M-47.0463 722.919C-30.9322 722.919 -15.5809 724.032 -0.656688 730.375C36.1894 746.034 87.1418 741.558 126.5 741.558C175.847 741.558 224.876 734.831 274.367 738.244C326.928 741.869 377.805 745.286 430.725 745.286C485.618 745.286 541.372 742.577 596.195 746.114C652.475 749.745 705.818 761.919 759.387 778.835C781.506 785.82 800.815 796.47 824.415 797.474C853.471 798.71 881.428 804.929 910.981 804.929C958.452 804.929 1005.53 813.632 1053.05 815.698C1075.18 816.661 1109.59 821.909 1131.12 813.834C1157.62 803.9 1185.06 802.328 1213.55 801.409C1262.34 799.835 1306.95 805.845 1354.79 814.249C1392.18 820.818 1432.12 834.751 1470.14 834.751" stroke="#1B1B27" stroke-width="2.56589" stroke-linecap="round"/>
</g>
<g filter="url(#filter7_d_1_25)">
<path d="M-32.1353 890.667C10.7039 893.047 46.6725 915.16 89.8445 912.827C138.921 910.174 179.484 887.525 226.321 876.171C272.256 865.035 318.9 864.573 365.904 864.573C454.407 864.573 540.178 865.823 627.674 880.312C773.981 904.542 922.354 941.87 1071.07 946.376C1190.61 949.999 1310.66 940.875 1429.14 954.039" stroke="#1B1B27" stroke-width="2.56589" stroke-linecap="round"/>
</g>
<g filter="url(#filter8_d_1_25)">
<path d="M-47.0463 976.405C-9.74837 999.317 39.5697 1028.59 85.2883 1028.59C129.83 1028.59 178.36 1030.71 221.558 1019.27C248.019 1012.27 276.255 1012.09 303.361 1008.3C337.567 1003.51 373.262 996.528 407.737 995.251C475.739 992.732 544.295 995.044 612.348 995.044C681.702 995.044 744.622 1022.54 811.989 1034.39C898.836 1049.67 985.714 1059.82 1073.76 1065.04C1118.72 1067.71 1164.17 1065.87 1209.2 1065.87C1242.42 1065.87 1270.12 1058.59 1302.39 1053.86C1341.65 1048.1 1381.79 1036.05 1421.68 1036.05" stroke="#1B1B27" stroke-width="2.56589" stroke-linecap="round"/>
</g>
<g filter="url(#filter9_d_1_25)">
<path d="M-13.4966 1125.51C20.9355 1127.33 54.3886 1143.21 88.809 1144.15C124.925 1145.14 158.15 1144 193.186 1135.04C228.362 1126.04 265.82 1125.51 301.911 1125.51C355.672 1125.51 408.915 1118.06 462.825 1118.06C552.534 1118.06 642.452 1115.95 731.636 1127.17C795.64 1135.23 858.143 1147.78 921.543 1157.82C1037.71 1176.21 1148.49 1185.16 1265.74 1185.16C1314.87 1185.16 1361.87 1173.98 1410.5 1173.98" stroke="#1B1B27" stroke-width="2.56589" stroke-linecap="round"/>
</g>
<g filter="url(#filter10_d_1_25)">
<path d="M-13.4966 1255.99C10.8108 1269.24 39.6502 1271.89 66.4426 1276.69C86.1668 1280.24 104.081 1285.81 124.43 1285.81C172.73 1285.81 220.458 1267.12 267.74 1258.88C336.135 1246.97 404.021 1223.45 474.008 1222.44C558.917 1221.21 639.069 1245.62 722.11 1259.71C863.725 1283.75 1001.7 1289.53 1145 1289.53C1262.19 1289.53 1379.07 1293.26 1496.24 1293.26" stroke="#1B1B27" stroke-width="2.56589" stroke-linecap="round"/>
</g>
<g filter="url(#filter11_d_1_25)">
<path d="M161.707 -153.098C161.707 -35.1367 170.535 81.3351 176.204 198.965C183.459 349.512 135.613 495.436 135.613 645.465C135.613 676.518 135.139 707.611 135.613 738.658C136.207 777.567 148.602 815.786 152.18 854.632C159.996 939.49 161.707 1027 161.707 1112.26C161.707 1208.71 154.251 1304.87 154.251 1401.37C154.251 1433.67 154.251 1530.59 154.251 1498.29" stroke="#1B1B27" stroke-width="2.56589" stroke-linecap="round"/>
</g>
<g filter="url(#filter12_d_1_25)">
<path d="M243.717 -134.46C248.435 -98.4839 247.499 -63.5262 256.971 -28.2192C271.849 27.2336 277.469 83.0379 289.278 138.908C310.64 239.963 312.065 350.887 290.521 452.451C280.878 497.91 279.716 545.189 269.811 590.378C253.438 665.081 258.358 736.917 279.131 810.314C297.15 873.983 302.32 942.82 312.473 1008.09C317.073 1037.66 315.859 1066.99 319.1 1096.52C323.013 1132.17 332.779 1167.85 333.183 1203.8C333.532 1234.84 337.107 1261.01 342.295 1291.4C348.584 1328.24 344.366 1368.2 344.366 1405.51C344.366 1433.98 347.886 1465.05 343.538 1493.32C340.396 1513.74 333.836 1532.47 333.183 1553.38C332.856 1563.83 334.604 1574.38 325.727 1580.3" stroke="#1B1B27" stroke-width="2.56589" stroke-linecap="round"/>
</g>
<g filter="url(#filter13_d_1_25)">
<path d="M407.737 -115.821C417.374 -71.2524 413.203 -23.3813 420.784 22.1051C428.977 71.2577 447.195 117.919 454.127 167.073C467.782 263.899 471.109 358.232 471.109 455.765C471.109 518.916 462.861 586.66 473.18 648.572C484.01 713.55 496.751 782.603 519.777 844.485C531.765 876.705 534.854 909.694 542.764 942.855C552.369 983.123 561.166 1024.2 568.03 1065.04C579.991 1136.21 594.124 1209.43 594.124 1281.87C594.124 1331.92 594.124 1381.97 594.124 1432.02C594.124 1461.21 596.962 1489.28 600.751 1518.17C601.711 1525.49 605.446 1550.82 597.852 1531.84" stroke="#1B1B27" stroke-width="2.56589" stroke-linecap="round"/>
</g>
<g filter="url(#filter14_d_1_25)">
<path d="M612.763 -7.71655C618.345 55.5455 631.401 115.7 631.401 179.499C631.401 258.195 631.401 336.892 631.401 415.588C631.401 500.569 674.797 583.766 692.909 665.968C706.949 729.69 715.454 796.652 722.317 861.467C730.808 941.662 741.447 1022.61 744.89 1103.15C749.994 1222.53 750.689 1341.59 750.689 1461.01" stroke="#1B1B27" stroke-width="2.56589" stroke-linecap="round"/>
</g>
<g filter="url(#filter15_d_1_25)">
<path d="M855.065 -74.8158C837.8 -4.18413 832.699 68.6493 832.699 140.979C832.699 203.774 825.035 273.784 833.527 336.063C840.765 389.14 860.765 443.943 875.775 495.113C887.094 533.701 899.362 572.195 899.798 612.744C900.154 645.845 896.334 678.393 896.07 711.322C894.882 859.844 892.343 1008.32 892.343 1156.99C892.343 1248.5 902.846 1340.25 903.526 1432.02C903.724 1458.75 904.163 1485.63 903.526 1512.37C903.147 1528.3 897.658 1525.6 892.343 1513.2" stroke="#1B1B27" stroke-width="2.56589" stroke-linecap="round"/>
</g>
<g filter="url(#filter16_d_1_25)">
<path d="M1022.81 -0.261108C1008.47 32.535 992.802 65.7366 988.435 101.216C984.374 134.217 984.794 168.01 985.743 201.244C986.525 228.603 988.563 255.066 996.719 280.976C1000.01 291.431 1000.29 302.42 1004.38 312.661C1008.74 323.558 1016.11 332.816 1018.88 344.347C1023.11 361.995 1033.18 374.824 1040.62 391.151C1052.93 418.123 1060.9 451.738 1069.2 480.409C1077.11 507.736 1085.83 533.356 1096.54 559.727C1116.46 608.769 1108.55 671.4 1108.55 723.333C1108.55 765.442 1112.71 810.237 1106.07 851.94C1099.49 893.178 1082.19 932.568 1075 973.92C1063.08 1042.47 1050.73 1109.24 1046.01 1178.95C1043.44 1216.84 1045.18 1255.29 1045.18 1293.26C1045.18 1326.19 1043.35 1359.75 1049.74 1392.25C1055.68 1422.5 1067.09 1453.54 1075 1483.58C1079.81 1501.86 1078.78 1520.91 1082.46 1539.29" stroke="#1B1B27" stroke-width="2.56589" stroke-linecap="round"/>
</g>
<g filter="url(#filter17_d_1_25)">
<path d="M1138.37 -52.4493C1158.77 -25.933 1161.9 18.3198 1169.02 51.0988C1172.6 67.5704 1179.02 87.0304 1185.59 102.459C1201.78 140.485 1218.97 185.196 1220.38 227.131C1221.15 249.753 1224.27 277.464 1232.39 298.786C1252.48 351.513 1263.25 410.665 1268.02 466.948C1272.15 515.712 1280.03 562.343 1280.03 611.501C1280.03 680.578 1277.02 748.478 1272.57 817.355C1268.27 883.966 1258.1 951.069 1257.66 1017.82C1257.41 1055.54 1259.98 1093.55 1253.93 1130.9C1241.54 1207.46 1212.93 1284.52 1212.93 1362.43C1212.93 1401.52 1221.56 1516.74 1209.2 1479.65" stroke="#1B1B27" stroke-width="2.56589" stroke-linecap="round"/>
</g>
</g>
<defs>
<filter id="filter0_d_1_25" x="-94.0305" y="122.033" width="1411.16" height="38.6314" filterUnits="userSpaceOnUse" color-interpolation-filters="sRGB">
<feFlood flood-opacity="0" result="BackgroundImageFix"/>
<feColorMatrix in="SourceAlpha" type="matrix" values="0 0 0 0 0 0 0 0 0 0 0 0 0 0 0 0 0 0 127 0" result="hardAlpha"/>
<feOffset dx="1.71059" dy="1.71059"/>
<feGaussianBlur stdDeviation="1.36848"/>
<feComposite in2="hardAlpha" operator="out"/>
<feColorMatrix type="matrix" values="0 0 0 0 0.105882 0 0 0 0 0.105882 0 0 0 0 0.152941 0 0 0 0.58 0"/>
<feBlend mode="normal" in2="BackgroundImageFix" result="effect1_dropShadow_1_25"/>
<feBlend mode="normal" in="SourceGraphic" in2="effect1_dropShadow_1_25" result="shape"/>
</filter>
<filter id="filter1_d_1_25" x="-79.0442" y="218.369" width="1377.44" height="43.723" filterUnits="userSpaceOnUse" color-interpolation-filters="sRGB">
<feFlood flood-opacity="0" result="BackgroundImageFix"/>
<feColorMatrix in="SourceAlpha" type="matrix" values="0 0 0 0 0 0 0 0 0 0 0 0 0 0 0 0 0 0 127 0" result="hardAlpha"/>
<feOffset dx="1.71059" dy="1.71059"/>
<feGaussianBlur stdDeviation="1.36848"/>
<feComposite in2="hardAlpha" operator="out"/>
<feColorMatrix type="matrix" values="0 0 0 0 0.105882 0 0 0 0 0.105882 0 0 0 0 0.152941 0 0 0 0.58 0"/>
<feBlend mode="normal" in2="BackgroundImageFix" result="effect1_dropShadow_1_25"/>
<feBlend mode="normal" in="SourceGraphic" in2="effect1_dropShadow_1_25" result="shape"/>
</filter>
<filter id="filter2_d_1_25" x="-67.8038" y="310.162" width="1354.96" height="68.1396" filterUnits="userSpaceOnUse" color-interpolation-filters="sRGB">
<feFlood flood-opacity="0" result="BackgroundImageFix"/>
<feColorMatrix in="SourceAlpha" type="matrix" values="0 0 0 0 0 0 0 0 0 0 0 0 0 0 0 0 0 0 127 0" result="hardAlpha"/>
<feOffset dx="1.71059" dy="1.71059"/>
<feGaussianBlur stdDeviation="1.36848"/>
<feComposite in2="hardAlpha" operator="out"/>
<feColorMatrix type="matrix" values="0 0 0 0 0.105882 0 0 0 0 0.105882 0 0 0 0 0.152941 0 0 0 0.58 0"/>
<feBlend mode="normal" in2="BackgroundImageFix" result="effect1_dropShadow_1_25"/>
<feBlend mode="normal" in="SourceGraphic" in2="effect1_dropShadow_1_25" result="shape"/>
</filter>
<filter id="filter3_d_1_25" x="-101.524" y="377.601" width="1386.81" height="112.795" filterUnits="userSpaceOnUse" color-interpolation-filters="sRGB">
<feFlood flood-opacity="0" result="BackgroundImageFix"/>
<feColorMatrix in="SourceAlpha" type="matrix" values="0 0 0 0 0 0 0 0 0 0 0 0 0 0 0 0 0 0 127 0" result="hardAlpha"/>
<feOffset dx="1.71059" dy="1.71059"/>
<feGaussianBlur stdDeviation="1.36848"/>
<feComposite in2="hardAlpha" operator="out"/>
<feColorMatrix type="matrix" values="0 0 0 0 0.105882 0 0 0 0 0.105882 0 0 0 0 0.152941 0 0 0 0.58 0"/>
<feBlend mode="normal" in2="BackgroundImageFix" result="effect1_dropShadow_1_25"/>
<feBlend mode="normal" in="SourceGraphic" in2="effect1_dropShadow_1_25" result="shape"/>
</filter>
<filter id="filter4_d_1_25" x="-2.23778" y="534.666" width="1287.52" height="83.0387" filterUnits="userSpaceOnUse" color-interpolation-filters="sRGB">
<feFlood flood-opacity="0" result="BackgroundImageFix"/>
<feColorMatrix in="SourceAlpha" type="matrix" values="0 0 0 0 0 0 0 0 0 0 0 0 0 0 0 0 0 0 127 0" result="hardAlpha"/>
<feOffset dx="1.71059" dy="1.71059"/>
<feGaussianBlur stdDeviation="1.36848"/>
<feComposite in2="hardAlpha" operator="out"/>
<feColorMatrix type="matrix" values="0 0 0 0 0.105882 0 0 0 0 0.105882 0 0 0 0 0.152941 0 0 0 0.58 0"/>
<feBlend mode="normal" in2="BackgroundImageFix" result="effect1_dropShadow_1_25"/>
<feBlend mode="normal" in="SourceGraphic" in2="effect1_dropShadow_1_25" result="shape"/>
</filter>
<filter id="filter5_d_1_25" x="-11.6044" y="615.445" width="1399.92" height="74.2013" filterUnits="userSpaceOnUse" color-interpolation-filters="sRGB">
<feFlood flood-opacity="0" result="BackgroundImageFix"/>
<feColorMatrix in="SourceAlpha" type="matrix" values="0 0 0 0 0 0 0 0 0 0 0 0 0 0 0 0 0 0 127 0" result="hardAlpha"/>
<feOffset dx="1.71059" dy="1.71059"/>
<feGaussianBlur stdDeviation="1.36848"/>
<feComposite in2="hardAlpha" operator="out"/>
<feColorMatrix type="matrix" values="0 0 0 0 0.105882 0 0 0 0 0.105882 0 0 0 0 0.152941 0 0 0 0.58 0"/>
<feBlend mode="normal" in2="BackgroundImageFix" result="effect1_dropShadow_1_25"/>
<feBlend mode="normal" in="SourceGraphic" in2="effect1_dropShadow_1_25" result="shape"/>
</filter>
<filter id="filter6_d_1_25" x="-49.3556" y="720.61" width="1525.23" height="119.872" filterUnits="userSpaceOnUse" color-interpolation-filters="sRGB">
<feFlood flood-opacity="0" result="BackgroundImageFix"/>
<feColorMatrix in="SourceAlpha" type="matrix" values="0 0 0 0 0 0 0 0 0 0 0 0 0 0 0 0 0 0 127 0" result="hardAlpha"/>
<feOffset dx="1.71059" dy="1.71059"/>
<feGaussianBlur stdDeviation="1.36848"/>
<feComposite in2="hardAlpha" operator="out"/>
<feColorMatrix type="matrix" values="0 0 0 0 0.105882 0 0 0 0 0.105882 0 0 0 0 0.152941 0 0 0 0.58 0"/>
<feBlend mode="normal" in2="BackgroundImageFix" result="effect1_dropShadow_1_25"/>
<feBlend mode="normal" in="SourceGraphic" in2="effect1_dropShadow_1_25" result="shape"/>
</filter>
<filter id="filter7_d_1_25" x="-34.4446" y="862.264" width="1469.31" height="97.5055" filterUnits="userSpaceOnUse" color-interpolation-filters="sRGB">
<feFlood flood-opacity="0" result="BackgroundImageFix"/>
<feColorMatrix in="SourceAlpha" type="matrix" values="0 0 0 0 0 0 0 0 0 0 0 0 0 0 0 0 0 0 127 0" result="hardAlpha"/>
<feOffset dx="1.71059" dy="1.71059"/>
<feGaussianBlur stdDeviation="1.36848"/>
<feComposite in2="hardAlpha" operator="out"/>
<feColorMatrix type="matrix" values="0 0 0 0 0.105882 0 0 0 0 0.105882 0 0 0 0 0.152941 0 0 0 0.58 0"/>
<feBlend mode="normal" in2="BackgroundImageFix" result="effect1_dropShadow_1_25"/>
<feBlend mode="normal" in="SourceGraphic" in2="effect1_dropShadow_1_25" result="shape"/>
</filter>
<filter id="filter8_d_1_25" x="-49.3557" y="974.096" width="1476.77" height="98.1219" filterUnits="userSpaceOnUse" color-interpolation-filters="sRGB">
<feFlood flood-opacity="0" result="BackgroundImageFix"/>
<feColorMatrix in="SourceAlpha" type="matrix" values="0 0 0 0 0 0 0 0 0 0 0 0 0 0 0 0 0 0 127 0" result="hardAlpha"/>
<feOffset dx="1.71059" dy="1.71059"/>
<feGaussianBlur stdDeviation="1.36848"/>
<feComposite in2="hardAlpha" operator="out"/>
<feColorMatrix type="matrix" values="0 0 0 0 0.105882 0 0 0 0 0.105882 0 0 0 0 0.152941 0 0 0 0.58 0"/>
<feBlend mode="normal" in2="BackgroundImageFix" result="effect1_dropShadow_1_25"/>
<feBlend mode="normal" in="SourceGraphic" in2="effect1_dropShadow_1_25" result="shape"/>
</filter>
<filter id="filter9_d_1_25" x="-15.8059" y="1115.59" width="1432.03" height="75.2974" filterUnits="userSpaceOnUse" color-interpolation-filters="sRGB">
<feFlood flood-opacity="0" result="BackgroundImageFix"/>
<feColorMatrix in="SourceAlpha" type="matrix" values="0 0 0 0 0 0 0 0 0 0 0 0 0 0 0 0 0 0 127 0" result="hardAlpha"/>
<feOffset dx="1.71059" dy="1.71059"/>
<feGaussianBlur stdDeviation="1.36848"/>
<feComposite in2="hardAlpha" operator="out"/>
<feColorMatrix type="matrix" values="0 0 0 0 0.105882 0 0 0 0 0.105882 0 0 0 0 0.152941 0 0 0 0.58 0"/>
<feBlend mode="normal" in2="BackgroundImageFix" result="effect1_dropShadow_1_25"/>
<feBlend mode="normal" in="SourceGraphic" in2="effect1_dropShadow_1_25" result="shape"/>
</filter>
<filter id="filter10_d_1_25" x="-15.8061" y="1220.08" width="1517.77" height="78.9115" filterUnits="userSpaceOnUse" color-interpolation-filters="sRGB">
<feFlood flood-opacity="0" result="BackgroundImageFix"/>
<feColorMatrix in="SourceAlpha" type="matrix" values="0 0 0 0 0 0 0 0 0 0 0 0 0 0 0 0 0 0 127 0" result="hardAlpha"/>
<feOffset dx="1.71059" dy="1.71059"/>
<feGaussianBlur stdDeviation="1.36848"/>
<feComposite in2="hardAlpha" operator="out"/>
<feColorMatrix type="matrix" values="0 0 0 0 0.105882 0 0 0 0 0.105882 0 0 0 0 0.152941 0 0 0 0.58 0"/>
<feBlend mode="normal" in2="BackgroundImageFix" result="effect1_dropShadow_1_25"/>
<feBlend mode="normal" in="SourceGraphic" in2="effect1_dropShadow_1_25" result="shape"/>
</filter>
<filter id="filter11_d_1_25" x="133.093" y="-155.408" width="49.5902" height="1664.65" filterUnits="userSpaceOnUse" color-interpolation-filters="sRGB">
<feFlood flood-opacity="0" result="BackgroundImageFix"/>
<feColorMatrix in="SourceAlpha" type="matrix" values="0 0 0 0 0 0 0 0 0 0 0 0 0 0 0 0 0 0 127 0" result="hardAlpha"/>
<feOffset dx="1.71059" dy="1.71059"/>
<feGaussianBlur stdDeviation="1.36848"/>
<feComposite in2="hardAlpha" operator="out"/>
<feColorMatrix type="matrix" values="0 0 0 0 0.105882 0 0 0 0 0.105882 0 0 0 0 0.152941 0 0 0 0.58 0"/>
<feBlend mode="normal" in2="BackgroundImageFix" result="effect1_dropShadow_1_25"/>
<feBlend mode="normal" in="SourceGraphic" in2="effect1_dropShadow_1_25" result="shape"/>
</filter>
<filter id="filter12_d_1_25" x="241.408" y="-136.769" width="110.073" height="1722.8" filterUnits="userSpaceOnUse" color-interpolation-filters="sRGB">
<feFlood flood-opacity="0" result="BackgroundImageFix"/>
<feColorMatrix in="SourceAlpha" type="matrix" values="0 0 0 0 0 0 0 0 0 0 0 0 0 0 0 0 0 0 127 0" result="hardAlpha"/>
<feOffset dx="1.71059" dy="1.71059"/>
<feGaussianBlur stdDeviation="1.36848"/>
<feComposite in2="hardAlpha" operator="out"/>
<feColorMatrix type="matrix" values="0 0 0 0 0.105882 0 0 0 0 0.105882 0 0 0 0 0.152941 0 0 0 0.58 0"/>
<feBlend mode="normal" in2="BackgroundImageFix" result="effect1_dropShadow_1_25"/>
<feBlend mode="normal" in="SourceGraphic" in2="effect1_dropShadow_1_25" result="shape"/>
</filter>
<filter id="filter13_d_1_25" x="405.428" y="-118.131" width="202.819" height="1662.62" filterUnits="userSpaceOnUse" color-interpolation-filters="sRGB">
<feFlood flood-opacity="0" result="BackgroundImageFix"/>
<feColorMatrix in="SourceAlpha" type="matrix" values="0 0 0 0 0 0 0 0 0 0 0 0 0 0 0 0 0 0 127 0" result="hardAlpha"/>
<feOffset dx="1.71059" dy="1.71059"/>
<feGaussianBlur stdDeviation="1.36848"/>
<feComposite in2="hardAlpha" operator="out"/>
<feColorMatrix type="matrix" values="0 0 0 0 0.105882 0 0 0 0 0.105882 0 0 0 0 0.152941 0 0 0 0.58 0"/>
<feBlend mode="normal" in2="BackgroundImageFix" result="effect1_dropShadow_1_25"/>
<feBlend mode="normal" in="SourceGraphic" in2="effect1_dropShadow_1_25" result="shape"/>
</filter>
<filter id="filter14_d_1_25" x="610.453" y="-10.026" width="145.966" height="1476.77" filterUnits="userSpaceOnUse" color-interpolation-filters="sRGB">
<feFlood flood-opacity="0" result="BackgroundImageFix"/>
<feColorMatrix in="SourceAlpha" type="matrix" values="0 0 0 0 0 0 0 0 0 0 0 0 0 0 0 0 0 0 127 0" result="hardAlpha"/>
<feOffset dx="1.71059" dy="1.71059"/>
<feGaussianBlur stdDeviation="1.36848"/>
<feComposite in2="hardAlpha" operator="out"/>
<feColorMatrix type="matrix" values="0 0 0 0 0.105882 0 0 0 0 0.105882 0 0 0 0 0.152941 0 0 0 0.58 0"/>
<feBlend mode="normal" in2="BackgroundImageFix" result="effect1_dropShadow_1_25"/>
<feBlend mode="normal" in="SourceGraphic" in2="effect1_dropShadow_1_25" result="shape"/>
</filter>
<filter id="filter15_d_1_25" x="827.216" y="-77.1254" width="82.3726" height="1606.28" filterUnits="userSpaceOnUse" color-interpolation-filters="sRGB">
<feFlood flood-opacity="0" result="BackgroundImageFix"/>
<feColorMatrix in="SourceAlpha" type="matrix" values="0 0 0 0 0 0 0 0 0 0 0 0 0 0 0 0 0 0 127 0" result="hardAlpha"/>
<feOffset dx="1.71059" dy="1.71059"/>
<feGaussianBlur stdDeviation="1.36848"/>
<feComposite in2="hardAlpha" operator="out"/>
<feColorMatrix type="matrix" values="0 0 0 0 0.105882 0 0 0 0 0.105882 0 0 0 0 0.152941 0 0 0 0.58 0"/>
<feBlend mode="normal" in2="BackgroundImageFix" result="effect1_dropShadow_1_25"/>
<feBlend mode="normal" in="SourceGraphic" in2="effect1_dropShadow_1_25" result="shape"/>
</filter>
<filter id="filter16_d_1_25" x="982.797" y="-2.57079" width="133.035" height="1547.59" filterUnits="userSpaceOnUse" color-interpolation-filters="sRGB">
<feFlood flood-opacity="0" result="BackgroundImageFix"/>
<feColorMatrix in="SourceAlpha" type="matrix" values="0 0 0 0 0 0 0 0 0 0 0 0 0 0 0 0 0 0 127 0" result="hardAlpha"/>
<feOffset dx="1.71059" dy="1.71059"/>
<feGaussianBlur stdDeviation="1.36848"/>
<feComposite in2="hardAlpha" operator="out"/>
<feColorMatrix type="matrix" values="0 0 0 0 0.105882 0 0 0 0 0.105882 0 0 0 0 0.152941 0 0 0 0.58 0"/>
<feBlend mode="normal" in2="BackgroundImageFix" result="effect1_dropShadow_1_25"/>
<feBlend mode="normal" in="SourceGraphic" in2="effect1_dropShadow_1_25" result="shape"/>
</filter>
<filter id="filter17_d_1_25" x="1136.06" y="-54.7587" width="149.694" height="1547.39" filterUnits="userSpaceOnUse" color-interpolation-filters="sRGB">
<feFlood flood-opacity="0" result="BackgroundImageFix"/>
<feColorMatrix in="SourceAlpha" type="matrix" values="0 0 0 0 0 0 0 0 0 0 0 0 0 0 0 0 0 0 127 0" result="hardAlpha"/>
<feOffset dx="1.71059" dy="1.71059"/>
<feGaussianBlur stdDeviation="1.36848"/>
<feComposite in2="hardAlpha" operator="out"/>
<feColorMatrix type="matrix" values="0 0 0 0 0.105882 0 0 0 0 0.105882 0 0 0 0 0.152941 0 0 0 0.58 0"/>
<feBlend mode="normal" in2="BackgroundImageFix" result="effect1_dropShadow_1_25"/>
<feBlend mode="normal" in="SourceGraphic" in2="effect1_dropShadow_1_25" result="shape"/>
</filter>
<clipPath id="clip0_1_25">
<rect width="1280" height="1460.85" fill="white"/>
</clipPath>
</defs>
</svg>
