<svg width="72" height="73" viewBox="0 0 72 73"  xmlns="http://www.w3.org/2000/svg">
<path d="M32.7138 6.8843C19.0219 8.37256 8.00881 19.3856 6.52055 32.7799C5.0323 46.7695 13.0689 59.2708 25.2726 64.0332C26.1655 64.3309 27.0585 63.7356 27.0585 62.545V57.7826C27.0585 57.7826 25.8679 58.0802 24.3796 58.0802C20.2125 58.0802 18.4266 54.5084 18.1289 52.4249C17.8313 51.2343 17.236 50.3413 16.343 49.4484C15.4501 49.1507 15.1524 49.1507 15.1524 48.8531C15.1524 48.2578 16.0454 48.2578 16.343 48.2578C18.1289 48.2578 19.6172 50.3413 20.2125 51.2343C21.7007 53.6155 23.4866 54.2108 24.3796 54.2108C25.5702 54.2108 26.4632 53.9131 27.0585 53.6155C27.3561 51.5319 28.2491 49.4484 30.035 48.2578C23.189 46.7695 18.1289 42.9 18.1289 36.3517C18.1289 33.0776 19.6172 29.8034 21.7007 27.4222C21.4031 26.8269 21.1054 25.3387 21.1054 23.2551C21.1054 22.0645 21.1054 20.2786 21.9984 18.4927C21.9984 18.4927 26.1655 18.4927 30.3326 22.3621C31.8209 21.7668 33.9044 21.4692 35.988 21.4692C38.0715 21.4692 40.1551 21.7668 41.941 22.3621C45.8105 18.4927 50.2752 18.4927 50.2752 18.4927C50.8705 20.2786 50.8705 22.0645 50.8705 23.2551C50.8705 25.6363 50.5729 26.8269 50.2752 27.4222C52.3588 29.8034 53.847 32.7799 53.847 36.3517C53.847 42.9 48.787 46.7695 41.941 48.2578C43.7269 49.746 44.9175 52.4249 44.9175 55.1037V62.8426C44.9175 63.7356 45.8105 64.6286 47.0011 64.3309C58.0141 59.8661 65.7531 49.1507 65.7531 36.6494C65.7531 18.7903 50.5729 4.80075 32.7138 6.8843Z" fill="white"/>
</svg>
