<svg width="72" height="73" viewBox="0 0 72 73"  xmlns="http://www.w3.org/2000/svg">
<g clip-path="url(#clip0_8_10)">
<path d="M46.9144 2.01729C46.3338 2.03572 45.7832 2.27971 45.3796 2.69746L25.5236 22.5622L14.0914 33.9857C13.8621 34.2096 13.6836 34.4802 13.5682 34.7792C8.17187 40.8977 8.24643 50.2291 14.0914 56.074L25.5236 67.5063C31.6019 73.5845 41.5337 73.5845 47.612 67.5063L57.6577 57.4606C57.865 57.2527 58.0293 57.0061 58.1413 56.7347C58.2533 56.4634 58.3108 56.1726 58.3104 55.8791C58.31 55.5855 58.2518 55.2949 58.1391 55.0239C58.0263 54.7528 57.8614 54.5066 57.6535 54.2993C57.4456 54.092 57.199 53.9277 56.9276 53.8158C56.6563 53.7038 56.3655 53.6464 56.0719 53.6468C55.7784 53.6472 55.4878 53.7055 55.2168 53.8182C54.9457 53.9309 54.6995 54.0959 54.4923 54.3038L44.4465 64.3495C40.0772 68.7188 33.0497 68.7188 28.6804 64.3495L17.2481 52.9173C12.8788 48.548 12.8788 41.5117 17.2481 37.1424L28.6804 25.7189C33.0497 21.3496 40.0772 21.3496 44.4465 25.7189L54.4923 35.7646C54.9109 36.1844 55.4791 36.4207 56.0719 36.4215C56.6647 36.4223 57.2336 36.1876 57.6533 35.769C58.0731 35.3504 58.3094 34.7821 58.3102 34.1893C58.311 33.5965 58.0763 33.0276 57.6577 32.6079L47.612 22.5622C44.5187 19.4689 40.4275 17.9899 36.3542 18.0451L48.5451 5.85419C48.8699 5.5404 49.0919 5.13549 49.1818 4.6929C49.2717 4.25031 49.2252 3.79086 49.0486 3.37521C48.8719 2.95957 48.5734 2.60727 48.1924 2.36483C47.8113 2.12238 47.3657 2.00121 46.9144 2.01729ZM32.9882 42.8018C32.6923 42.7977 32.3986 42.8523 32.1241 42.9626C31.8496 43.0729 31.5998 43.2367 31.3891 43.4444C31.1785 43.6521 31.0112 43.8996 30.897 44.1726C30.7828 44.4455 30.724 44.7384 30.724 45.0342C30.724 45.3301 30.7828 45.623 30.897 45.8959C31.0112 46.1688 31.1785 46.4163 31.3891 46.624C31.5998 46.8317 31.8496 46.9955 32.1241 47.1058C32.3986 47.2161 32.6923 47.2708 32.9882 47.2666H63.7968C64.0926 47.2708 64.3863 47.2161 64.6608 47.1058C64.9353 46.9955 65.1851 46.8317 65.3958 46.624C65.6064 46.4163 65.7737 46.1688 65.8879 45.8959C66.0021 45.623 66.0609 45.3301 66.0609 45.0342C66.0609 44.7384 66.0021 44.4455 65.8879 44.1726C65.7737 43.8996 65.6064 43.6521 65.3958 43.4444C65.1851 43.2367 64.9353 43.0729 64.6608 42.9626C64.3863 42.8523 64.0926 42.7977 63.7968 42.8018H32.9882Z" fill="white"/>
</g>
<defs>
<clipPath id="clip0_8_10">
<rect width="71.4362" height="71.4362" fill="white" transform="translate(0.269897 0.831299)"/>
</clipPath>
</defs>
</svg>
