<svg width="72" height="73" viewBox="0 0 72 73"  xmlns="http://www.w3.org/2000/svg">
<path d="M56.8235 9.66205H15.1524C11.8633 9.66205 9.19934 12.326 9.19934 15.6151V57.2862C9.19934 60.5752 11.8633 63.2392 15.1524 63.2392H56.8235C60.1125 63.2392 62.7765 60.5752 62.7765 57.2862V15.6151C62.7765 12.326 60.1125 9.66205 56.8235 9.66205ZM23.302 51.3332C21.2274 51.3332 19.5457 49.6514 19.5457 47.5768V34.251C19.5487 32.1793 21.2304 30.4976 23.302 30.4976C25.3767 30.4976 27.0584 32.1793 27.0584 34.254V47.5798C27.0584 49.6514 25.3767 51.3332 23.302 51.3332ZM23.1711 26.6787C20.8762 26.6787 19.3433 25.1488 19.3433 23.1069C19.3433 21.065 20.8732 19.5351 23.4241 19.5351C25.719 19.5351 27.2519 21.065 27.2519 23.1069C27.2519 25.1488 25.7219 26.6787 23.1711 26.6787ZM50.2126 51.3332C48.2065 51.3332 46.5783 49.705 46.5783 47.6988V39.945C46.5783 36.7959 44.6406 36.4506 43.9144 36.4506C43.1881 36.4506 40.7652 36.5548 40.7652 39.945V47.6988C40.7652 49.705 39.1371 51.3332 37.1309 51.3332H36.8898C34.8836 51.3332 33.2555 49.705 33.2555 47.6988V34.254C33.2555 32.1793 34.9372 30.4976 37.0118 30.4976C39.0865 30.4976 40.7682 32.1793 40.7682 34.254C40.7682 34.254 41.6076 30.4976 47.3105 30.4976C50.9389 30.4976 53.847 33.4056 53.847 39.945V47.6988C53.847 49.705 52.2188 51.3332 50.2126 51.3332Z" fill="white"/>
</svg>
